<svg xmlns="http://www.w3.org/2000/svg" viewBox="0 0 320 320"><g data-name="Calque 2"><g data-name="facebook"><circle cx="160" cy="160" r="160" fill="#5de8c1"/><path fill="#fff" d="M243.53 72.4h-39.65a6.46 6.46 0 0 0-6.06 3.66l-81.5 176.35c-2.46 5.34 2.66 12.37 9 12.37H165a6.47 6.47 0 0 0 6.07-3.67l81.47-176.35c2.46-5.33-2.66-12.36-9-12.36Z"/><path fill="#0f2b42" d="M230.65 72.19c.37 0 .95.53 1.18 1l-80.72 174.62h-38.66c-.36 0-1-.53-1.18-.95L192 72.19h38.66m0-8.38H191a6.48 6.48 0 0 0-6.07 3.67l-81.49 176.35c-2.46 5.33 2.66 12.36 9 12.36h39.66a6.45 6.45 0 0 0 6.06-3.66l81.5-176.35c2.46-5.34-2.66-12.37-9-12.37ZM146.36 63.81H98c-4.67 0-7.19 4.5-5 9l14.85 72.58c2.76 5.68 10.53 6.75 12.83 1.77l33.54-72.59c2.09-4.66-2.35-10.76-7.86-10.76Z"/></g></g></svg>